# xmcd
#
# Track frame offsets:
#	150
#	15566
#	28796
#	48045
#	62010
#	72685
#	87733
#	103441
#	117349
#	132842
#	147324
#
# Disc length: 2141 seconds
#
# Revision: 1
# Processed by: cddbd v1.5.2PL0 Copyright (c) Steve Scherf et al.
# Submitted via: audiograbber 1.83.01
#
DISCID=a4085b0b
DTITLE=Railbenders - Like A Wheel
DYEAR=2009
DGENRE=Country
TTITLE0=Like A Wheel
TTITLE1=Black Chrome Horse
TTITLE2=Drive Away
TTITLE3=Saturday And Sunday
TTITLE4=I Drive a Truck
TTITLE5=Drop Me Off at the Honky Tonk
TTITLE6=Big Diesel
TTITLE7=Glass Picket Fence
TTITLE8=It's Time to Party
TTITLE9=Whiskey and Me
TTITLE10=Gone Fishin'
EXTD=
EXTT0=
EXTT1=
EXTT2=
EXTT3=
EXTT4=
EXTT5=
EXTT6=
EXTT7=
EXTT8=
EXTT9=
EXTT10=
PLAYORDER=
